<svg id="Capa_1" enable-background="new 0 0 512 512" height="512" viewBox="0 0 512 512" width="512" xmlns="http://www.w3.org/2000/svg" xmlns:xlink="http://www.w3.org/1999/xlink"><linearGradient id="SVGID_1_" gradientUnits="userSpaceOnUse" x1="256" x2="256" y1="512" y2="0"><stop offset="0" stop-color="#ffedad"/><stop offset="1" stop-color="#ffffe5"/></linearGradient><linearGradient id="SVGID_2_" gradientUnits="userSpaceOnUse" x1="256" x2="256" y1="371.02" y2="140.981"><stop offset="0" stop-color="#ffde00"/><stop offset="1" stop-color="#fd5900"/></linearGradient><g><path d="m512 256c0 141.385-114.615 256-256 256s-256-114.615-256-256 114.615-256 256-256 256 114.615 256 256z" fill="url(#SVGID_1_)"/><path d="m407 185.219v176.953c0 4.886-3.961 8.848-8.848 8.848h-248.914c-4.886 0-8.848-3.961-8.848-8.848v-8.848h221.191c14.636 0 26.543-11.907 26.543-26.543v-150.41h10.027c4.888 0 8.849 3.961 8.849 8.848zm-36.57 8.847h-265.43v17.695h265.43zm0-44.238c0-4.886-3.961-8.848-8.848-8.848h-247.734c-4.886 0-8.848 3.961-8.848 8.848v26.543h265.43zm-53.086 123.867h-23.594c-4.879 0-8.848 3.969-8.848 8.848s3.969 8.848 8.848 8.848h23.594c4.879 0 8.848-3.969 8.848-8.848s-3.969-8.848-8.848-8.848zm44.238 61.934h-247.734c-4.886 0-8.848-3.961-8.848-8.848v-97.324h265.43v97.324c0 4.887-3.962 8.848-8.848 8.848zm-176.953-35.391c0-4.886-3.961-8.848-8.848-8.848h-35.391c-4.886 0-8.848 3.961-8.848 8.848s3.961 8.848 8.848 8.848h35.391c4.887 0 8.848-3.961 8.848-8.848zm23.594-35.39c0-4.886-3.961-8.848-8.848-8.848h-58.984c-4.886 0-8.848 3.961-8.848 8.848s3.961 8.848 8.848 8.848h58.984c4.886-.001 8.848-3.962 8.848-8.848zm135.664 17.695c0-14.636-11.907-26.543-26.543-26.543h-23.594c-14.636 0-26.543 11.907-26.543 26.543s11.907 26.543 26.543 26.543h23.594c14.636 0 26.543-11.907 26.543-26.543z" fill="url(#SVGID_2_)"/></g></svg>