<svg id="Capa_1" enable-background="new 0 0 512 512" height="512" viewBox="0 0 512 512" width="512" xmlns="http://www.w3.org/2000/svg" xmlns:xlink="http://www.w3.org/1999/xlink"><linearGradient id="SVGID_1_" gradientUnits="userSpaceOnUse" x1="256" x2="256" y1="512" y2="0"><stop offset="0" stop-color="#addcff"/><stop offset=".5028" stop-color="#eaf6ff"/><stop offset="1" stop-color="#eaf6ff"/></linearGradient><linearGradient id="SVGID_2_" gradientUnits="userSpaceOnUse" x1="256" x2="256" y1="407" y2="105"><stop offset="0" stop-color="#00c0ff"/><stop offset="1" stop-color="#5558ff"/></linearGradient><g><circle cx="256" cy="256" fill="url(#SVGID_1_)" r="256"/><path d="m202.914 342.117c2.035 0 4.068.086 6.094.244l-9.577 64.639h-17.751v-20.645c0-14.636-11.907-26.543-26.543-26.543h-33.921l7.865-17.695zm187.871 17.695-7.865-17.695h-49.65c-4.886 0-8.848-3.961-8.848-8.848 0-4.886 3.961-8.848 8.848-8.848h41.786l-8.151-18.34c-1.42-3.195-4.589-5.254-8.085-5.254h-61.981l8.726 58.899c1.172.053 2.346.085 3.521.085h81.699zm15.443 34.747-7.578-17.051h-89.563c-.296 0-.592-.006-.888-.009l4.37 29.501h85.574c6.402 0 10.685-6.59 8.085-12.441zm-251.091-17.051h-41.786l-7.578 17.051c-2.6 5.851 1.682 12.441 8.085 12.441h50.127v-20.645c-.001-4.878-3.969-8.847-8.848-8.847zm95.554-19.465c-7.319-5.489-15.578-9.645-24.291-12.339l-9.08 61.296h77.361l-4.652-31.404c-14.189-2.854-27.727-8.845-39.338-17.553zm-105.596-51.961-8.151 18.339h65.97c2.904 0 5.805.138 8.692.401l3.555-23.995h-61.98c-3.497.001-6.666 2.06-8.086 5.255zm110.905 12.441c-8.628 0-16.743-4.212-21.708-11.269l-1.813-2.577-3.459 23.348c11.608 3.241 22.617 8.607 32.289 15.861 7.776 5.832 16.608 10.171 25.923 12.836l-7.711-52.045-1.813 2.577c-4.965 7.057-13.08 11.269-21.708 11.269zm0-119.148c11.383 0 20.645-9.261 20.645-20.645s-9.261-20.645-20.645-20.645-20.645 9.261-20.645 20.645 9.262 20.645 20.645 20.645zm-60.449 22.072c-34.458-48.971.569-116.447 60.449-116.447 59.88 0 94.907 67.476 60.448 116.447l-53.213 75.625c-3.524 5.008-10.948 5.008-14.472 0zm22.109-42.717c0 21.14 17.199 38.34 38.34 38.34s38.34-17.199 38.34-38.34-17.199-38.34-38.34-38.34-38.34 17.2-38.34 38.34z" fill="url(#SVGID_2_)"/></g></svg>