<svg id="Capa_1" enable-background="new 0 0 512 512" height="512" viewBox="0 0 512 512" width="512" xmlns="http://www.w3.org/2000/svg" xmlns:xlink="http://www.w3.org/1999/xlink"><linearGradient id="SVGID_1_" gradientUnits="userSpaceOnUse" x1="256" x2="256" y1="512" y2="0"><stop offset="0" stop-color="#addcff"/><stop offset=".5028" stop-color="#eaf6ff"/><stop offset="1" stop-color="#eaf6ff"/></linearGradient><linearGradient id="SVGID_2_" gradientUnits="userSpaceOnUse" x1="256" x2="256" y1="407" y2="105"><stop offset="0" stop-color="#00c0ff"/><stop offset="1" stop-color="#5558ff"/></linearGradient><g><g><circle cx="256" cy="256" fill="url(#SVGID_1_)" r="256"/></g><g><g><path d="m335.941 256c0-4.91 3.973-8.882 8.882-8.882h8.432c-4.244-46.792-41.587-84.13-88.374-88.374v8.432c0 4.91-3.973 8.882-8.882 8.882s-8.882-3.973-8.882-8.882v-8.432c-46.786 4.244-84.13 41.582-88.374 88.374h8.432c4.91 0 8.882 3.973 8.882 8.882s-3.973 8.882-8.882 8.882h-8.432c4.244 46.792 41.587 84.13 88.374 88.374v-8.433c0-4.909 3.973-8.882 8.882-8.882s8.882 3.973 8.882 8.882v8.433c46.786-4.244 84.13-41.582 88.374-88.374h-8.432c-4.909 0-8.882-3.972-8.882-8.882zm-38.131 41.81c-3.47 3.47-9.091 3.47-12.56 0l-35.519-35.519c-.824-.822-1.478-1.807-1.93-2.899-.449-1.085-.683-2.236-.683-3.392v-53.294c0-4.91 3.973-8.883 8.882-8.883s8.882 3.973 8.882 8.883v49.616l32.927 32.927c3.47 3.47 3.47 9.091.001 12.561zm-41.81-192.81c-83.255 0-151 67.736-151 151 0 83.263 67.745 151 151 151s151-67.737 151-151c0-83.264-67.745-151-151-151zm0 266.471c-63.668 0-115.471-51.802-115.471-115.471s51.803-115.471 115.471-115.471 115.471 51.803 115.471 115.471-51.803 115.471-115.471 115.471z" fill="url(#SVGID_2_)"/></g></g></g></svg>