<svg id="Capa_1" enable-background="new 0 0 512 512" height="512" viewBox="0 0 512 512" width="512" xmlns="http://www.w3.org/2000/svg" xmlns:xlink="http://www.w3.org/1999/xlink"><linearGradient id="SVGID_1_" gradientTransform="matrix(1 0 0 -1 0 512)" gradientUnits="userSpaceOnUse" x1="256" x2="256" y1="0" y2="512"><stop offset="0" stop-color="#ffedad"/><stop offset="1" stop-color="#ffffe5"/></linearGradient><linearGradient id="SVGID_2_" gradientTransform="matrix(1 0 0 -1 0 512)" gradientUnits="userSpaceOnUse" x1="256" x2="256" y1="104.999" y2="407"><stop offset="0" stop-color="#ffde00"/><stop offset="1" stop-color="#fd5900"/></linearGradient><g><circle cx="256" cy="256" fill="url(#SVGID_1_)" r="256"/><path d="m246.562 125.645v100.273c0 11.383-9.261 20.645-20.645 20.645h-100.272c-11.383 0-20.645-9.261-20.645-20.645v-100.273c0-11.383 9.261-20.645 20.645-20.645h100.273c11.383 0 20.644 9.261 20.644 20.645zm-20.644 139.793h-100.273c-11.383 0-20.645 9.261-20.645 20.645v100.273c0 11.383 9.261 20.645 20.645 20.645h100.273c11.383 0 20.645-9.261 20.645-20.645v-100.274c-.001-11.383-9.262-20.644-20.645-20.644zm160.437 0h-100.273c-11.383 0-20.645 9.261-20.645 20.645v100.273c0 11.383 9.261 20.645 20.645 20.645h100.273c11.383 0 20.645-9.261 20.645-20.645v-100.274c0-11.383-9.261-20.644-20.645-20.644zm0-160.438h-100.273c-11.383 0-20.645 9.261-20.645 20.645v100.273c0 11.383 9.261 20.645 20.645 20.645h100.273c11.383 0 20.645-9.261 20.645-20.645v-100.273c0-11.384-9.261-20.645-20.645-20.645z" fill="url(#SVGID_2_)"/></g></svg>