<svg id="Capa_1" enable-background="new 0 0 512 512" height="512" viewBox="0 0 512 512" width="512" xmlns="http://www.w3.org/2000/svg" xmlns:xlink="http://www.w3.org/1999/xlink"><linearGradient id="SVGID_1_" gradientUnits="userSpaceOnUse" x1="256" x2="256" y1="512" y2="-85.333"><stop offset="0" stop-color="#ffedaa"/><stop offset="1" stop-color="#ffffe4"/></linearGradient><linearGradient id="SVGID_2_" gradientUnits="userSpaceOnUse" x1="256" x2="256" y1="407" y2="105"><stop offset="0" stop-color="#ffde00"/><stop offset="1" stop-color="#ff5900"/></linearGradient><g><g><path d="m512 256c0 141.385-114.615 256-256 256s-256-114.615-256-256 114.615-256 256-256 256 114.615 256 256z" fill="url(#SVGID_1_)"/></g><path d="m205.137 203.294-76.905 133.203c-14.711-23.302-23.232-50.903-23.232-80.497 0-18.54 3.349-36.296 9.462-52.706zm101.726 105.412h90.676c6.112-16.41 9.461-34.166 9.461-52.706 0-29.594-8.521-57.195-23.233-80.497zm20.213-70.401 45.321-78.498c-27.696-33.477-69.555-54.807-116.397-54.807-1.949 0-3.886.049-5.817.122zm-40.646 70.401 30.43-52.706-30.43-52.706h-60.86l-30.43 52.706 30.43 52.706zm-50.644 17.695 45.327 78.508c47.168-7.897 86.921-37.655 108.493-78.508zm-50.862-52.706-45.321 78.499c27.696 33.476 69.555 54.806 116.397 54.806 1.949 0 3.886-.049 5.817-.122zm91.289-88.097-45.326-78.508c-47.168 7.897-86.921 37.655-108.493 78.508z" fill="url(#SVGID_2_)"/></g></svg>